<?xml version="1.0" encoding="utf-8"?>
<!-- Generator: Adobe Illustrator 24.2.3, SVG Export Plug-In . SVG Version: 6.00 Build 0)  -->
<svg version="1.1" id="Layer_1" xmlns="http://www.w3.org/2000/svg" xmlns:xlink="http://www.w3.org/1999/xlink" x="0px" y="0px"
	 viewBox="0 0 1102.8 972" style="enable-background:new 0 0 1102.8 972;" xml:space="preserve">
<style type="text/css">
	.st0{fill:#00AFEA;stroke:#1BA0D7;stroke-width:4.7312;stroke-miterlimit:10;}
	.st1{fill:#FFFFFF;}
</style>
<g>
	<path class="st0" d="M551.6,99.9c-51.8,58.3-98.9,121.5-142.1,186.3C340.7,389.4,255,524.8,278.2,654.7
		c18.1,101,104.8,184.5,203.2,209.3c203.9,51.3,405.5-149.2,331.4-353.1C784.8,434,740,363,695,295.3
		C650.3,228.1,602.6,162.5,551.6,99.9z"/>
	<path class="st1" d="M616.8,444.8h-1.2c-30.6,0-55.7,25.1-55.7,55.7v62.7c-11.3,0.7-24.6,1.1-34.9,1.4v-64
		c0-30.6-25.1-55.7-55.7-55.7H468c-30.6,0-55.7,25.1-55.7,55.7v147.7c0,30.6,25.1,55.7,55.7,55.7h1.2c30.6,0,55.7-25.1,55.7-55.7
		V585c10.3,0,27.9,0,34.9,0.1v63.2c0,30.6,25.1,55.7,55.7,55.7h1.2c30.6,0,55.7-25.1,55.7-55.7V500.6
		C672.6,469.9,647.5,444.8,616.8,444.8z M468.6,465.9L468.6,465.9c18.5,0,33.7,15.1,33.7,33.7v65.9c-41.6,4.3-60.4,18.9-67.3,26.2
		v-92C434.9,481.1,450.1,465.9,468.6,465.9z M468.6,682.2L468.6,682.2c-18.5,0-33.7-15.2-33.7-33.7v-22.7
		c3.8-7.5,11.6-17.9,27.5-25.5c19.1-9,33-11.6,39.8-12.3v60.5C502.3,667,487.1,682.2,468.6,682.2z M616.2,465.9
		c9.3,0,17.7,3.8,23.8,9.9s9.9,14.5,9.9,23.8v26.9c-6,6.8-14.1,14.7-23.3,19.8c-15.7,8.8-36.9,12.4-44.1,13.4v-60.1
		C582.6,481.1,597.7,465.9,616.2,465.9z M616.2,682.2c-18.5,0-33.7-15.2-33.7-33.7v-65.9c30.2-3.8,54.3-15.7,67.3-23.4v89.4
		C649.9,667,634.7,682.2,616.2,682.2z"/>
</g>
</svg>
